<svg xmlns="http://www.w3.org/2000/svg" viewBox="0 0 200 180"><defs><style>.s{stroke:#183b31;stroke-width:5;stroke-linejoin:round}.g{fill:#6dbb62}.p{fill:#9b75d0}.y{fill:#f4cf43}.w{fill:#fffdf4}.t{font:700 17px Georgia,serif;fill:#263b35}</style></defs><path class="g s" d="M96 83C67 17 18 18 17 21c-5 38 20 73 78 71z"/><path class="p s" d="M104 83c29-66 78-65 79-62 5 38-20 73-78 71z"/><path class="y s" d="M92 94c-43 10-55 46-51 49 27 12 48-4 55-40z"/><path class="w s" d="M108 94c43 10 55 46 51 49-27 12-48-4-55-40z"/><path fill="#187a52" class="s" d="M94 69h12v68H94z"/><circle cx="100" cy="61" r="9" fill="#187a52" class="s"/><path d="M94 54L78 39M106 54l16-15" fill="none" class="s"/><text x="27" y="76" class="t">ideas</text><text x="119" y="76" class="t">ideas</text></svg>